<svg id="Calque_1" data-name="Calque 1" xmlns="http://www.w3.org/2000/svg" viewBox="0 0 199.9 87.76"><defs><style>.cls-1,.cls-2{fill:#e3e3e2;}.cls-2{opacity:0.05;isolation:isolate;}.cls-3{fill:#ebde91;}.cls-4{fill:#f49d52;}.cls-5{fill:#dd5260;}.cls-6{fill:#fff;}.cls-7{fill:#6bbb7e;}</style></defs><path class="cls-1" d="M40.09,87.76A5.2,5.2,0,0,1,36.84,87l1.62-47.67c0-7.59-7-5.69-7-17.07,0-8.12,3.25-12.46,8.67-12.46s8.67,4.34,8.67,12.46c0,11.38-7,9.48-7,17.07,0,.27,1.9,47.67,1.63,47.67A5.22,5.22,0,0,1,40.09,87.76Z"/><path class="cls-2" d="M47.67,21.67c0,7.31-3.52,11.38-7.85,11.38S32,29.25,32,21.67c0-7.86,3.52-11.38,7.86-11.38C44.42,10.29,47.67,13.54,47.67,21.67Z"/><path class="cls-1" d="M156.83,2.44c0,1.35-1.35,17.33-1.35,36.56,0,13.82,1.89,47.68,1.62,47.68a6.93,6.93,0,0,1-6.5,0s.54-37.38.54-39.28c0-7.31-3.79-9.75-3.79-27.63,0-12.19,4.34-19.77,7-19.77"/><path class="cls-2" d="M155.48.27c-4.07,1.63-7,10-7,21.4,0,12.73,4.06,24.65,7.31,26.82,0-3.53-.27-6.51-.27-9.21,0-19.24,1.35-35.22,1.35-36.57"/><path class="cls-1" d="M173.9,20.86c0-8.4-.27-11.92-.27-11.92h-1.36V24.11a.86.86,0,0,1-.81.81.72.72,0,0,1-.81-.81V8.94h-1.36v16c0,.54-.54.81-1.08.81s-1.08-.27-1.08-.81v-16h-1.36V24.11a.86.86,0,0,1-.81.81.72.72,0,0,1-.81-.81V8.94h-1.36s-.27,3.52-.27,11.92c0,11.37,4.88,10.56,4.88,18.14,0,.28-1.9,47.68-1.63,47.68a6.93,6.93,0,0,0,6.5,0L170.65,39C169,31.69,173.9,32.23,173.9,20.86Z"/><path class="cls-2" d="M173.08,23c0-8.66,0-11.64-1.08-12.73V24.11a.86.86,0,0,1-.81.81.72.72,0,0,1-.81-.81V9.75A2.45,2.45,0,0,0,169,10V25.19c0,.54-.54.81-1.08.81s-1.09-.27-1.09-.81V10a2,2,0,0,1-1.35-.27V24.11a.86.86,0,0,1-.81.81.72.72,0,0,1-.82-.81V10.29c-.81,1.09-1.08,4.07-1.08,12.73,0,4.88,2.44,10.3,5.69,10.3S173.08,27.63,173.08,23Z"/><path class="cls-3" d="M36.3,24.38A23.37,23.37,0,0,0,36,20.32,12.23,12.23,0,0,0,34.4,16a13.29,13.29,0,0,0-3.25-3.52,11,11,0,0,0-5.69-1.35,23.78,23.78,0,0,0-6.5.81c-1.9.54-3.79,1.08-5.15,1.62s-2.7,1.36-3.79,1.9S8.4,16.52,7.86,16.79a2.16,2.16,0,0,0-1.36,1.9,5.35,5.35,0,0,0,.27,1.9c0,.27.27.54.27.81a2.66,2.66,0,0,0,1.09,1.35A12.47,12.47,0,0,1,10,20.86a11.87,11.87,0,0,0,1.9-1.63c.81-.54,1.35-1.08,2.17-1.62-.28,1.08-.55,2.16-1.09,4.06q-.81,2.43-1.62,5.69c-.55,2.16-1.09,4.33-1.9,6.77a48.16,48.16,0,0,1-1.9,6.77C7,43.07,6.5,45.23,6,47.13S5.15,50.65,4.88,52a39.73,39.73,0,0,1-1.63,5.68C2.71,59.05,2.17,60.13,1.9,61A7.75,7.75,0,0,1,.81,62.3c-.27.27-.54.54-.81.54A7.31,7.31,0,0,0,1.63,64.2a5,5,0,0,0,1.89.54,4.8,4.8,0,0,0,3-.82,5.32,5.32,0,0,0,1.36-2.43,23.14,23.14,0,0,0,1.08-3.25c.27-1.36.81-2.71,1.08-4.07a24.52,24.52,0,0,1,1.09-4.33c.27-1.63.54-3,.81-4.33a29,29,0,0,0,10-2.44,24.56,24.56,0,0,0,7.31-4.88,21.81,21.81,0,0,0,4.61-6.5A20.92,20.92,0,0,0,36.3,24.38Zm-5.69-.54a17.42,17.42,0,0,1-1.36,5.41,13.79,13.79,0,0,1-2.43,4.34,18.78,18.78,0,0,1-3.25,3.25,11.6,11.6,0,0,1-3.8,2.44A11.39,11.39,0,0,1,16,40.9c-1.35.27-2.44.54-3.52.81A16.14,16.14,0,0,0,13,38.46c.27-1.08.27-1.62.54-2.43.27-1.09.55-2.44,1.09-4.34.27-1.62.81-3.52,1.35-6s1.36-5.41,2.17-9.21a1.4,1.4,0,0,0-.54-1.08l-.27-.27A11.28,11.28,0,0,1,20,14.09a9,9,0,0,1,2.71-.28,11.5,11.5,0,0,1,3,.55A5.59,5.59,0,0,1,28.44,16a6.49,6.49,0,0,1,1.63,3A9.42,9.42,0,0,1,30.61,23.84Z"/><path class="cls-3" d="M55.53,48.21l-1.36,1.36a14.84,14.84,0,0,1-2.43,1.89,3.59,3.59,0,0,1-2.17.82,2.31,2.31,0,0,1-1.63-.54,1.66,1.66,0,0,1-.27-1.09,4.35,4.35,0,0,1,.82-2.44,19,19,0,0,1,1.62-2.43c.81-1.09,1.63-2.44,2.17-3.25a6.22,6.22,0,0,0,.81-3,3.44,3.44,0,0,0-.27-1.63,3.84,3.84,0,0,0-.54-1.62,2.07,2.07,0,0,0-1.09-1.09,3.84,3.84,0,0,0-1.62-.54H47.13c-.54,0-.81,0-.81-.27-.27,0-.27-.27-.54-.27A3.09,3.09,0,0,0,46.59,32a2.28,2.28,0,0,0,0-1.89,3.59,3.59,0,0,0-.81-2.17,2.22,2.22,0,0,0-2.17-1.08,3.65,3.65,0,0,0-1.9.81,11.74,11.74,0,0,0-1.62,1.89A10.24,10.24,0,0,0,39,32c-.27.81-.54,1.36-.27,1.9,0,.54.27.81.27,1.08l.82.81a13.89,13.89,0,0,1-1.09,1.9,18.11,18.11,0,0,0-1.62,3.25c-.54,1.08-1.08,2.44-1.9,3.79a39.78,39.78,0,0,0-1.62,3.8,26.57,26.57,0,0,0-1.36,3,4.38,4.38,0,0,1-.81,1.63,2,2,0,0,0-.27,1.08.59.59,0,0,0,.54.55h.81c.27,0,.55-.55.82-.82,0-.27.54-.54.81-1.35a23.94,23.94,0,0,0,1.62-2.71c.82-1.08,1.36-2.44,2.17-3.52a27.75,27.75,0,0,0,2.17-3.79c.81-1.09,1.35-2.17,1.89-3a16.61,16.61,0,0,1,1.09-1.63c.27,0,.54.27,1.08.27a2,2,0,0,0,1.36.27H47.4a1,1,0,0,1,1.09,1.09,7,7,0,0,1-.55,1.89,10,10,0,0,1-1.62,2.71l-.81,1.63-.82,1.62L43.88,49a2.94,2.94,0,0,0-.27,1.35,5.35,5.35,0,0,0,.27,1.9c.27.54.54,1.35.81,1.89a2.77,2.77,0,0,0,1.63,1.36,5.41,5.41,0,0,0,2.44.54,7.12,7.12,0,0,0,3-.81A23.26,23.26,0,0,0,55,53.09l1.62-1.63A9.09,9.09,0,0,1,55.53,48.21Z"/><path class="cls-4" d="M198.55,23c-.28,0-.55-.27-1.09-.54a5.09,5.09,0,0,0-2.16-.54c-.82-.27-1.9-.27-3.26-.54a21.88,21.88,0,0,0-4.33-.27,38.2,38.2,0,0,0,.54-4.88,5.4,5.4,0,0,0-.27-2.44c-.27-.27-.54-.27-.81-.54h-1.36c-.54,0-.81.27-1.35.27-.27,0-.54.27-.81.55a25.49,25.49,0,0,0-1.36,2.7,21.13,21.13,0,0,0-1.35,4.88c-.54,0-1.35.27-1.9.27a6.71,6.71,0,0,0-2.16.27h-2.71a7.54,7.54,0,0,1-2.44-.27,1,1,0,0,0-.81.27l-.82.81a1,1,0,0,0-.27.82c0,.27,0,.54.27.54a12.94,12.94,0,0,0,2.44.81,13.83,13.83,0,0,0,3.52.54H178c.54,0,1.35-.27,1.9-.27-.55,2.17-1.09,4.61-1.63,6.77-.54,2.44-.81,4.61-1.35,6.77,0,.55-.27.82-.27,1.36-.28.27-.55.81-1.09,1.35a15.69,15.69,0,0,0-1.62,2.17c-.54.81-1.36,1.63-2.17,2.71-.81.81-1.35,1.62-2.17,2.44l-1.89,1.89a2.52,2.52,0,0,1-1.36.82c-.54,0-.81,0-1.08-.28s-.54-.54-.54-.81-.27-.81-.27-1.08V48.49a11.5,11.5,0,0,1,.27-1.36c0-.27.27-.81.27-1.08a1,1,0,0,1,.27-.82,1,1,0,0,1,.27-.81,38.59,38.59,0,0,0,.81-4.33c.27-1.09.27-1.9.54-2.71a11.33,11.33,0,0,1,.28-1.35v-.55h-1.36a2.94,2.94,0,0,0-1.35.27,3.4,3.4,0,0,0,.81-3,2.48,2.48,0,0,0-1.08-1.62,3.34,3.34,0,0,0-2.44-.81,9.38,9.38,0,0,0-3.25.81,19.15,19.15,0,0,0-4.07,3A23.72,23.72,0,0,0,150.6,39a17.48,17.48,0,0,0-2.16,5.15h0a19.81,19.81,0,0,1-3.53,3.25c-.81.81-2.16,1.36-2.7,1.9a16.34,16.34,0,0,1-.55,3.25,6.89,6.89,0,0,0,3-1.9c1.09-.81,1.9-1.62,3.25-2.71V49.3a4.84,4.84,0,0,0,.82,3c.54.81.81,1.35,1.62,1.62a3.83,3.83,0,0,0,1.63.54,9.41,9.41,0,0,0,3.52-.81c1.08-.27,1.89-1.08,3.25-1.89a9.85,9.85,0,0,0,3-3.53,6,6,0,0,0,.27,2.44c.27.81.27,1.36.54,1.63a3.73,3.73,0,0,0,.81,1.08c.27.27.82.27,1.09.54h1.35a3.48,3.48,0,0,0,1.63-.27c.54-.27.81-.27,1.35-.54a11.87,11.87,0,0,0,2.17-1.9c.81-.81,1.62-1.89,2.71-3a29.57,29.57,0,0,1,2.7-3.25c0-.27.28-.27.28-.54a14.16,14.16,0,0,0-.28,3,7.28,7.28,0,0,0,.28,2.44,9.81,9.81,0,0,0,1.08,2.44,6.31,6.31,0,0,0,1.89,1.89,5.75,5.75,0,0,0,3.26.82,7.61,7.61,0,0,0,3.25-1.36,24,24,0,0,0,4.06-3.52,31.23,31.23,0,0,0,3.79-4.6,31.75,31.75,0,0,0,3-4.61,2,2,0,0,0,.27-1.08c0-.27,0-.54-.27-.54s-.27-.28-.54,0a.58.58,0,0,0-.54.54,17.4,17.4,0,0,0-1.09,1.62c-.54.82-1.35,1.63-1.89,2.44-.82.81-1.63,1.9-2.44,2.71a25.64,25.64,0,0,1-2.71,2.71,14.48,14.48,0,0,1-2.44,1.89,3.58,3.58,0,0,1-2.16.55,2.47,2.47,0,0,1-1.9-.82c-.54-.27-.81-1.08-1.08-1.89a8.79,8.79,0,0,1,0-3.8,67.84,67.84,0,0,0,2.71-6.5c.81-1.89,1.35-3.79,2.16-5.41a51.32,51.32,0,0,1,1.63-4.88,5,5,0,0,0,.54-1.89,6.83,6.83,0,0,1,.54-1.9h4.88c.81,0,1.62.27,2.43.27.55,0,1.36.27,1.63.27.54,0,.81.27,1.35.27a1.65,1.65,0,0,0,1.09-.27c.27-.27.54-.54.54-.81s.27-.54.27-.81C199.09,23.29,198.82,23,198.55,23ZM163.33,37.11a14,14,0,0,1-.54,2.44c-.27,1.08-.54,1.89-.81,3s-.54,1.89-.81,2.7c0,.28-.27.55-.55.82a4.74,4.74,0,0,1-1.08,1.35c-.54.54-.81,1.09-1.35,1.36a5.82,5.82,0,0,1-1.63,1.08,3.84,3.84,0,0,1-1.62.54,2.07,2.07,0,0,1-1.36-.54c-.27-.27-.27-.81-.54-1.35V45.78a7.2,7.2,0,0,1,.81-3.25,16.4,16.4,0,0,1,1.36-3.25c1.35-2.44,2.43-4.07,3.52-4.88s1.89-1.08,2.17-.81c0,.27.27.27.27.54v.81a10.26,10.26,0,0,1-.55,1.63,1,1,0,0,0,.82-.27,1,1,0,0,0,.81-.27c.27,0,.54,0,.54-.28C163.33,36.3,163.6,36.57,163.33,37.11Z"/><path class="cls-5" d="M139.23,37.11a6.14,6.14,0,0,0,1.08-2.44c0-.81,0-1.35-.27-1.62A1.38,1.38,0,0,0,139,32.5a2.31,2.31,0,0,0-1.62.82,13,13,0,0,0-1.9,1.89,18.46,18.46,0,0,0-1.62,3.25,21,21,0,0,0-1.09,4.34c.55-.27.82-.82,1.36-1.09s1.08-.81,1.62-1.08Z"/><path class="cls-5" d="M133,48.21c.27.55.81,1.09,1.08,1.63.54.27,1.08.81,1.62.81a4.07,4.07,0,0,0,1.9.27,8.07,8.07,0,0,0,4.06-1.35c.27-.27.55-.27,1.09-.54a38.3,38.3,0,0,0,0-11.11l-.82.81a17,17,0,0,1-2.43,2.17c-.82.54-1.63,1.36-2.44,1.9l-2.44,1.62c-.81.54-1.35,1.09-1.9,1.36A3.33,3.33,0,0,0,133,48.21Z"/><path class="cls-5" d="M63.38,41.71a6.81,6.81,0,0,0,2.71.55h1.09c0-.55.27-.82.27-1.36,0-.27.27-.81.27-1.08V37.65a6.47,6.47,0,0,0-.54-2.17l-.82-1.62a2,2,0,0,0-1.08-.54,6.41,6.41,0,0,0-2.17.54,10.09,10.09,0,0,0-1.89,1.62c0,.27-.27.82-.27,1.09v1.89a5.05,5.05,0,0,0,.54,1.9C62.3,40.9,62.57,41.17,63.38,41.71Z"/><path class="cls-5" d="M58.51,40.9A7.94,7.94,0,0,0,58,43.34a5.77,5.77,0,0,0-.28,2.17V47.4a5.07,5.07,0,0,0,.55,1.9c.27.54.54.81.81,1.35a2.06,2.06,0,0,0,1.35.54,3.91,3.91,0,0,0,1.9-.54,7.16,7.16,0,0,0,1.62-1.35,11,11,0,0,0,1.36-1.9,18.15,18.15,0,0,0,.81-2.17H64.47a6.5,6.5,0,0,1-6-4.33Z"/><path class="cls-5" d="M140.31,53.36a10.67,10.67,0,0,1-4.88,1.08,12.06,12.06,0,0,1-2.71-.54A6.17,6.17,0,0,1,130,52a9.34,9.34,0,0,1-1.9-3.25,13.52,13.52,0,0,1-.54-4.88A16.59,16.59,0,0,1,128.93,39a49,49,0,0,1,3-4.87A12.69,12.69,0,0,1,136,30.61,8.05,8.05,0,0,1,140,29.25,43,43,0,0,0,120.54,6,43.8,43.8,0,0,0,61,22.21,41.61,41.61,0,0,0,55.8,36.57h0l1.62-2.44a5.88,5.88,0,0,1,1.09-1.63c.54-.54,1.08-.81,1.62-1.35.54-.27,1.36-.54,1.9-.81a6,6,0,0,1,2.17-.27h.54a6.87,6.87,0,0,1,1.89.54,5.61,5.61,0,0,1,2.17,1.62,10.15,10.15,0,0,1,1.9,2.71,8.7,8.7,0,0,1,.81,3.79V40.9a12.68,12.68,0,0,0,2.71-1.35c.81-.55,1.89-1.09,2.71-1.63l2.43-1.62a5.76,5.76,0,0,0,1.36-1.09v-.27A2.43,2.43,0,0,1,81,33.59V32.5l1.62-.81a2.09,2.09,0,0,1,1.09-.27c.27,0,.81-.27,1.08-.27,1.08,0,1.63,1.08,1.08,3.25a25,25,0,0,1-.81,2.71,22.1,22.1,0,0,1,2.44-2.71,17.62,17.62,0,0,1,2.44-2.17l2.44-1.62a7.88,7.88,0,0,1,2.43-.54,3.83,3.83,0,0,1,1.63.54,2.48,2.48,0,0,1,1.08,1.62c.27.54.27,1.36.54,2.17v2.71c.55-.81,1.36-1.63,1.9-2.44a18.3,18.3,0,0,1,2.44-2.17l2.44-1.62a4.44,4.44,0,0,1,2.7-.54,3.31,3.31,0,0,1,2.44.81,5.18,5.18,0,0,1,1.09,2.44,11.11,11.11,0,0,1,.27,3,13.25,13.25,0,0,1-.55,3.25l-1.89,7.58c-.54,1.9,0,2.71,1.08,2.71a7.51,7.51,0,0,0,3.25-1.35,18.45,18.45,0,0,0,3.25-3.25,35.3,35.3,0,0,0,3-3.8,17.69,17.69,0,0,1,2.44-3.25c.27-.27.54-.54.81-.54s.54,0,.54.27c.28,0,.28.27.28.54a1.6,1.6,0,0,1-.28,1.09c-.81,1.35-1.62,2.71-2.7,4.33S118.1,47.4,117,48.76A23.67,23.67,0,0,1,113,52.28a9.14,9.14,0,0,1-4.6,1.35,3.46,3.46,0,0,1-1.63-.27,2.06,2.06,0,0,1-1.35-.54,2.7,2.7,0,0,1-1.09-1.36,4,4,0,0,1-.27-1.89,10.2,10.2,0,0,1,.27-2.71c.27-1.08.27-2.17.55-3.25l.81-3.25c.27-1.08.54-1.9.81-2.71a2.92,2.92,0,0,0,0-2.17,1.48,1.48,0,0,0-1.35-.81,7,7,0,0,0-1.9.81,13,13,0,0,0-3,2.71,16.83,16.83,0,0,0-3,5.42A31.45,31.45,0,0,0,94.8,52c-.81.27-1.35.54-2.16.81a1,1,0,0,0-.82.27c-.81,0-1.35,0-1.35-.27-.27-.27-.27-1.08,0-2.17a12.45,12.45,0,0,0,.81-2.44c.27-1.08.81-2.43,1.09-3.79s.81-2.71,1.08-4.06A22.73,22.73,0,0,0,94,36.84c0-.81,0-1.09-.27-1.36s-.54-.27-1.08-.27a10.61,10.61,0,0,0-1.63.54,8.81,8.81,0,0,0-2.71,2.17,22.87,22.87,0,0,0-3,4.61,24.93,24.93,0,0,0-2.43,7.58h0c0,.27-.28.54-.28.81a1,1,0,0,1-.27.82,1,1,0,0,1-.27.81L79.36,53.9a1,1,0,0,0-.81.27,1,1,0,0,1-.81-.27c-.27,0-.54-.54-.54-.81v-1.9l3.25-13a15.12,15.12,0,0,1-2.17,1.63,42,42,0,0,1-3.52,2.44,13.21,13.21,0,0,1-3.52,1.62,12.58,12.58,0,0,1-1.63,4.06,7.34,7.34,0,0,1-2.43,3.25,12,12,0,0,1-3,2.17,8.71,8.71,0,0,1-3.8.81,5.74,5.74,0,0,1-3.79-1.08c-.27,0-.27-.27-.54-.54a43.1,43.1,0,0,0,21.13,29,43.8,43.8,0,0,0,59.59-16.25,42.33,42.33,0,0,0,4.87-13A2.7,2.7,0,0,1,140.31,53.36Z"/><path class="cls-6" d="M91.55,82.89c-12.73-2.71-19.23-8.67-22.48-13a21.75,21.75,0,0,1-4.33-10,1.39,1.39,0,0,1,2.71,0,22.07,22.07,0,0,0,4.06,9.21c4.87,6.5,12.73,10.57,23.29,12.46.82,0,1.36.54,1.09,1.36,0,.54-.82.81-1.36.81A8.19,8.19,0,0,0,91.55,82.89Z"/><path class="cls-7" d="M124.06,26.27a1,1,0,0,1-.82.28c-.27,0-.27,0-.54-.28v-.54c0-.27.27-.54.27-.81a10.61,10.61,0,0,0,1.36-1.9,11.28,11.28,0,0,0,1.08-2.7h-1.08a2.37,2.37,0,0,1-1.63-.82,3.9,3.9,0,0,1-.54-1.89A3.83,3.83,0,0,1,122.7,16l.27-.27A20,20,0,0,0,114,10a1,1,0,0,1-.82-1.35,1,1,0,0,1,1.36-.81c.27,0,5.14,1.08,10.29,6.5.27,0,.27-.27.54-.27a3.35,3.35,0,0,1,1.63-.28,1.81,1.81,0,0,1,1.89,1.36,9.22,9.22,0,0,1,.27,2.71,6.87,6.87,0,0,1-.54,1.89,8,8,0,0,1-1.08,2.17A14.41,14.41,0,0,1,126,24.11,3.75,3.75,0,0,1,124.06,26.27Z"/><path class="cls-7" d="M130.29,21.67c.27,0,1.35,1.08,3,4.33a1.3,1.3,0,0,1-.55,1.63h-.54a1.4,1.4,0,0,1-1.08-.54,8.42,8.42,0,0,0-2.17-3.52c-.54-.28-.54-1.09-.27-1.63S129.75,21.4,130.29,21.67Z"/></svg>